# xmcd
#
# Track frame offsets:
#	150
#	13390
#	32337
#	43181
#	58050
#	77086
#	87661
#	99925
#	110812
#	135789
#	156897
#	178701
#	199063
#	216188
#
# Disc length: 3208 seconds
#
# Revision: 0
# Processed by: cddbd v1.5.1PL0 Copyright (c) Steve Scherf et al.
# Submitted via: EasyCDDAExtractor 8.2.2.1
#
DISCID=bd0c860e
DTITLE=Various Artist - Noches de Cabaret
DYEAR=2003
DGENRE=Latin
TTITLE0=Orq. Cheppin - Lo que quieras
TTITLE1=Maravillas de Mati - Radio Mati
TTITLE2=Cachao - Guajeo de saxos
TTITLE3=Irazú - El paso de Encarnación
TTITLE4=Rey Alonso - Pero me acuerdo de ti
TTITLE5=Los Amigos - Como canta el contrabajo
TTITLE6=La 440 - La gloria eres tú
TTITLE7=Celeste Mendoza - Herido de sombra
TTITLE8=Ñico Larit - Cuba Libre
TTITLE9=Boby Carcasses - Emiliano Primero
TTITLE10=Eduardo Proveyer - Night and Day
TTITLE11=Greco - Saturday Night T.V.
TTITLE12=Pucho López - Safari tropical
TTITLE13=Ernan L. Nussan - My Funny Valentine
EXTD=
EXTT0=
EXTT1=
EXTT2=
EXTT3=
EXTT4=
EXTT5=
EXTT6=
EXTT7=
EXTT8=
EXTT9=
EXTT10=
EXTT11=
EXTT12=
EXTT13=
PLAYORDER=
